# xmcd
#
# Track frame offsets: 
#        150
#        19050
#        34990
#        59023
#        74538
#        92662
#        107716
#        125227
#        142047
#        161243
#        180359
#
# Disc length: 2629 seconds
#
# Revision: 0
# Processed by: cddbd v1.5.1PL2 Copyright (c) Steve Scherf et al.
# Submitted via: ExactAudioCopy v0.95a5
#
DISCID=a50a430b
DTITLE=Kenny Rodgers - Water and Bridges
DYEAR=2006
DGENRE=Country
TTITLE0=Water and Bridges
TTITLE1=Someone is me
TTITLE2=Someone somewhere tonight
TTITLE3=I Can't Unlove You
TTITLE4=Calling Me 9 With Don Henley)
TTITLE5=Half a Man
TTITLE6=I Can feel You Drifting
TTITLE7=The Last ten Years ( Superman)
TTITLE8=You'll Know Love
TTITLE9=My Petition
TTITLE10=One Life
EXTD=
EXTT0=
EXTT1=
EXTT2=
EXTT3=
EXTT4=
EXTT5=
EXTT6=
EXTT7=
EXTT8=
EXTT9=
EXTT10=
PLAYORDER=
